<?xml version="1.0" standalone="no"?>
<!DOCTYPE svg PUBLIC "-//W3C//DTD SVG 20010904//EN"
 "http://www.w3.org/TR/2001/REC-SVG-20010904/DTD/svg10.dtd">
<svg version="1.0" xmlns="http://www.w3.org/2000/svg"
 width="474.000000pt" height="474.000000pt" viewBox="0 0 474.000000 474.000000"
 preserveAspectRatio="xMidYMid meet">

<g transform="translate(0.000000,474.000000) scale(0.100000,-0.100000)"
fill="#000000" stroke="none">
<path d="M2265 4564 c-306 -19 -580 -90 -847 -217 -234 -111 -417 -243 -616
-444 l-144 -145 -194 193 c-214 215 -270 254 -339 245 -46 -6 -92 -49 -102
-96 -3 -17 -9 -27 -14 -24 -5 3 -9 -255 -9 -601 0 -402 3 -604 10 -600 6 3 10
-2 10 -13 0 -37 62 -142 116 -196 64 -64 153 -111 236 -126 37 -7 255 -10 610
-8 538 3 554 4 598 24 65 31 85 57 85 113 0 70 -38 119 -256 338 l-192 191 31
43 c144 195 364 361 607 457 320 126 689 128 1020 5 140 -51 284 -137 410
-243 161 -135 270 -279 377 -499 79 -163 131 -225 223 -267 278 -128 585 95
544 395 -10 67 -36 136 -111 286 -164 329 -430 623 -753 834 -96 63 -350 190
-460 230 -106 38 -304 86 -435 105 -112 17 -306 26 -405 20z"/>
<path d="M3207 2199 c-124 -30 -163 -98 -112 -200 20 -40 79 -106 228 -256
l200 -202 -42 -56 c-184 -244 -492 -439 -797 -505 -364 -79 -739 -18 -1048
170 -246 149 -420 344 -556 625 -80 165 -126 222 -213 265 -80 39 -148 51
-225 40 -196 -27 -334 -182 -333 -374 1 -97 19 -153 113 -341 165 -331 458
-652 779 -852 92 -58 317 -169 413 -205 397 -147 868 -171 1289 -67 400 100
736 293 1035 597 l144 145 196 -195 c109 -107 215 -205 237 -218 56 -33 125
-33 159 -1 14 14 31 39 38 58 7 18 16 33 20 33 4 0 8 270 8 600 0 393 -3 600
-10 600 -5 0 -10 7 -10 16 0 33 -60 140 -103 186 -55 56 -106 91 -178 121 -53
21 -62 22 -624 23 -316 2 -587 -2 -608 -7z"/>
</g>
</svg>
